<?xml version="1.0" encoding="UTF-8"?>
<svg width="900" height="876" viewBox="0 0 900 876" xmlns="http://www.w3.org/2000/svg">
    <g id="kubernetes">
        <g id="g1350">
            <path id="path3055" fill="#326ce5" stroke="none" d="M 437.642456 99.140381 C 431.631012 99.443176 425.741119 100.933655 420.318268 103.524292 L 183.916992 216.479309 C 171.522461 222.398621 162.519913 233.593323 159.457504 246.894958 L 101.135719 500.620422 C 98.414871 512.430969 100.628761 524.830933 107.273262 534.996704 C 108.070724 536.226807 108.928391 537.417358 109.84317 538.564331 L 273.470703 742.010315 C 282.050385 752.674316 295.058868 758.883667 308.814484 758.880981 L 571.217163 758.820557 C 584.967651 758.830566 597.97522 752.632813 606.560974 741.980103 L 770.128052 538.503845 C 778.712341 527.834473 781.928589 513.867676 778.865723 500.559906 L 720.453186 246.834473 C 717.390747 233.532837 708.388306 222.338135 695.993774 216.418823 L 459.562256 103.524292 C 452.741089 100.265503 445.203888 98.758057 437.642456 99.140381 Z"/>
            <path id="path3059" fill="#ffffff" stroke="none" d="M 439.984894 185.486511 C 432.170471 185.487305 425.834351 192.525879 425.835297 201.208313 C 425.835297 201.341492 425.862579 201.468872 425.865509 201.601318 C 425.853973 202.781067 425.797028 204.202271 425.835297 205.229431 C 426.021667 210.237183 427.113251 214.069885 427.770264 218.683594 C 428.960571 228.558533 429.957947 236.744202 429.342468 244.352478 C 428.743866 247.221497 426.630707 249.845337 424.746857 251.669128 L 424.414276 257.655518 C 415.92276 258.35907 407.37442 259.647339 398.836151 261.585999 C 362.095917 269.927917 330.463226 288.852905 306.379944 314.405151 C 304.81723 313.33905 302.083252 311.377686 301.270325 310.777039 C 298.744019 311.118164 296.190765 311.897644 292.865204 309.960693 C 286.533051 305.698242 280.765839 299.814636 273.787415 292.727173 C 270.589874 289.336914 268.274323 286.108521 264.475281 282.840637 C 263.612549 282.09845 262.295929 281.094727 261.330933 280.331177 C 258.36084 277.963135 254.857697 276.72821 251.474579 276.612366 C 247.124817 276.46344 242.937454 278.164124 240.19722 281.601013 C 235.325668 287.711121 236.885361 297.049988 243.674149 302.462585 C 243.743073 302.517517 243.816391 302.56012 243.885788 302.61377 C 244.81868 303.370056 245.961014 304.338928 246.818497 304.972046 C 250.84993 307.948608 254.532532 309.472351 258.549377 311.835205 C 267.012054 317.061462 274.02771 321.394897 279.592377 326.619751 C 281.765411 328.936096 282.145203 333.0177 282.434418 334.78302 L 286.969543 338.834351 C 262.691772 375.370514 251.455841 420.500092 258.095917 466.483215 L 252.170013 468.206543 C 250.608185 470.223389 248.401215 473.396912 246.09288 474.344086 C 238.812363 476.637238 230.618546 477.479309 220.726379 478.516388 C 216.082123 478.902588 212.074875 478.672119 207.15123 479.604828 C 206.067566 479.81015 204.557648 480.203522 203.371948 480.481628 C 203.33075 480.489899 203.292221 480.502502 203.251007 480.511871 C 203.18634 480.526794 203.101471 480.558197 203.039368 480.572266 C 194.699432 482.587341 189.341843 490.253021 191.066635 497.805756 C 192.791824 505.360291 200.93811 509.954376 209.328094 508.145844 C 209.388687 508.132019 209.476593 508.1297 209.539719 508.115692 C 209.634445 508.093964 209.717834 508.048004 209.811829 508.024994 C 210.981384 507.76828 212.447067 507.482635 213.470184 507.208679 C 218.310883 505.912598 221.816711 504.00827 226.168549 502.340973 C 235.53093 498.983002 243.285202 496.177826 250.839661 495.084778 C 253.994827 494.837677 257.319061 497.031525 258.972656 497.957001 L 265.140442 496.898834 C 279.333771 540.903198 309.0784 576.470459 346.742554 598.788086 L 344.172668 604.955811 C 345.098938 607.35083 346.120636 610.591248 345.430603 612.956421 C 342.684174 620.078308 337.97995 627.595581 332.623199 635.976196 C 330.02948 639.848022 327.374969 642.852783 325.034424 647.283752 C 324.474304 648.343994 323.760986 649.972717 323.220337 651.093323 C 319.583679 658.874268 322.251282 667.835938 329.236969 671.199036 C 336.26651 674.583191 344.992096 671.013916 348.76825 663.217224 C 348.773773 663.206238 348.793091 663.19812 348.798462 663.187012 C 348.802124 663.17865 348.794769 663.165161 348.798462 663.156738 C 349.336304 662.051392 350.098328 660.598389 350.552032 659.558899 C 352.556824 654.966187 353.223877 651.030396 354.633667 646.58844 C 358.377502 637.184265 360.434448 627.316895 365.588196 621.168396 C 366.999451 619.484741 369.300293 618.837219 371.685791 618.198547 L 374.890564 612.393555 C 407.725647 624.996948 444.479248 628.378967 481.194061 620.042786 C 489.569611 618.141113 497.655426 615.679932 505.472137 612.726074 C 506.372833 614.32373 508.046753 617.39502 508.495544 618.168274 C 510.919708 618.95697 513.565613 619.364258 515.721497 622.552246 C 519.577393 629.139893 522.214233 636.933228 525.426697 646.346558 C 526.836731 650.788391 527.533508 654.724426 529.538574 659.317078 C 529.995544 660.363831 530.753723 661.83728 531.292114 662.945129 C 535.060364 670.767151 543.813538 674.348633 550.853699 670.957214 C 557.83844 667.592346 560.509033 658.631409 556.870239 650.85144 C 556.329529 649.730957 555.58606 648.102173 555.026001 647.041992 C 552.68512 642.611084 550.031128 639.636292 547.437195 635.764587 C 542.080017 627.384277 537.63678 620.422363 534.890015 613.300537 C 533.741516 609.627441 535.083801 607.343018 535.978455 604.955933 C 535.442688 604.341797 534.296143 600.872986 533.620178 599.241699 C 572.762512 576.130005 601.633667 539.23645 615.192078 496.62677 C 617.022949 496.91452 620.205139 497.477509 621.238892 497.684998 C 623.366943 496.281433 625.323608 494.450104 629.160278 494.752258 C 636.714783 495.84494 644.468811 498.651001 653.83136 502.008453 C 658.18335 503.675507 661.688965 505.610535 666.529785 506.906372 C 667.552856 507.180267 669.018494 507.435822 670.188049 507.692535 C 670.282104 507.715515 670.365417 507.761597 670.460205 507.783142 C 670.523315 507.797302 670.611267 507.7995 670.671814 507.813354 C 679.062317 509.619598 687.210022 505.028198 688.933289 497.473236 C 690.656189 489.920074 685.301025 482.252625 676.960571 480.239777 C 675.747375 479.963837 674.026855 479.495361 672.848755 479.272217 C 667.924988 478.339844 663.917786 478.569794 659.27356 478.183807 C 649.381348 477.147308 641.187622 476.30426 633.907043 474.011475 C 630.938538 472.859894 628.826721 469.327637 627.799744 467.873962 L 622.085449 466.21106 C 625.048157 444.776764 624.249268 422.46933 619.122498 400.149353 C 613.947937 377.62149 604.803162 357.017578 592.607056 338.864563 C 594.072815 337.532043 596.841064 335.080811 597.625916 334.35968 C 597.855347 331.820801 597.658325 329.158936 600.28656 326.347656 C 605.850952 321.122498 612.867188 316.789734 621.329529 311.56311 C 625.346313 309.199951 629.059387 307.676697 633.090637 304.699951 C 634.002258 304.026794 635.247131 302.960754 636.204834 302.190491 C 642.992126 296.776123 644.55481 287.437744 639.681702 281.328918 C 634.808594 275.220032 625.365601 274.644653 618.578247 280.059082 C 617.612122 280.824219 616.301208 281.822388 615.433899 282.568481 C 611.63501 285.83667 609.288879 289.064636 606.091553 292.455078 C 599.113525 299.542908 593.345703 305.456055 587.013733 309.718872 C 584.269897 311.316223 580.250977 310.763489 578.427185 310.656067 L 573.04541 314.49585 C 542.357727 282.316406 500.575623 261.742737 455.585785 257.746155 C 455.459961 255.860779 455.295074 252.452881 455.253174 251.427246 C 453.411377 249.664795 451.186432 248.160095 450.62738 244.352417 C 450.011902 236.744141 451.039459 228.558472 452.229767 218.683533 C 452.88681 214.069824 453.978424 210.237122 454.164795 205.22937 C 454.207184 204.090942 454.13916 202.439087 454.134552 201.208252 C 454.133636 192.525818 447.799377 185.485657 439.984924 185.48645 Z M 422.26767 295.236633 L 418.065125 369.461609 L 417.762726 369.612793 C 417.480896 376.253052 412.015869 381.555298 405.306274 381.555298 C 402.5578 381.555298 400.020905 380.672668 397.95932 379.166809 L 397.83844 379.227234 L 336.976959 336.083008 C 355.682159 317.689819 379.607574 304.09729 407.180817 297.836731 C 412.21756 296.693176 417.252075 295.844604 422.26767 295.236633 Z M 457.732391 295.236633 C 489.924255 299.195923 519.695557 313.772705 542.509094 336.113281 L 482.04068 378.985413 L 481.829041 378.894775 C 476.461914 382.814758 468.899994 381.842133 464.716492 376.596924 C 463.002747 374.448212 462.103577 371.921661 461.995392 369.371002 L 461.934906 369.340759 Z M 314.905975 363.807861 L 370.47644 413.512878 L 370.416046 413.815216 C 375.431885 418.17569 376.171539 425.742432 371.98822 430.988251 C 370.274597 433.137085 367.980774 434.578339 365.518066 435.251251 L 365.457672 435.493134 L 294.225891 456.052399 C 290.600403 422.901001 298.413727 390.675232 314.906067 363.807861 Z M 564.670715 363.838013 C 572.92749 377.220978 579.17981 392.168335 582.901978 408.373016 C 586.579468 424.383392 587.502441 440.365082 585.985901 455.810486 L 514.391296 435.190765 L 514.330872 434.888397 C 507.919769 433.13623 503.979706 426.614777 505.47226 420.073669 C 506.08371 417.394073 507.506134 415.127197 509.432892 413.452362 L 509.40271 413.301178 L 564.670837 363.838013 Z M 428.586609 417.35257 L 451.352936 417.35257 L 465.502563 435.039581 L 460.423218 457.110535 L 439.984894 466.936615 L 419.486115 457.080292 L 414.406738 435.009369 Z M 501.571991 477.881439 C 502.539429 477.83255 503.502686 477.919769 504.444214 478.093048 L 504.565186 477.941895 L 578.245911 490.398376 C 567.462708 520.693604 546.828613 546.938965 519.258972 564.502441 L 490.65741 495.417267 L 490.748077 495.296356 C 488.120728 489.191467 490.749908 482.03241 496.794922 479.121063 C 498.34259 478.375702 499.959473 477.962891 501.57193 477.881439 Z M 377.823395 478.183807 C 383.446198 478.262573 388.489624 482.165253 389.796143 487.888977 C 390.407776 490.568512 390.110077 493.22345 389.100708 495.568451 L 389.312347 495.840576 L 361.013153 564.230347 C 334.554932 547.252136 313.480835 521.830811 302.207611 490.64035 L 375.253479 478.244293 L 375.37442 478.395477 C 376.191498 478.245087 377.020081 478.172577 377.823395 478.183868 Z M 439.531372 508.145935 C 441.490021 508.073944 443.477448 508.47583 445.366577 509.385498 C 447.842896 510.578003 449.755829 512.455566 450.9599 514.706787 L 451.232025 514.706787 L 487.240967 579.770752 C 482.567688 581.337402 477.763275 582.676208 472.849487 583.79187 C 445.310211 590.0448 417.858398 588.150146 393.000916 579.680054 L 428.919159 514.737 L 428.979614 514.737 C 431.134857 510.707916 435.222321 508.30423 439.531372 508.145935 Z"/>
        </g>
    </g>
    <path id="longhorn" fill="#5f224a" stroke="none" d="M 48.460938 874.9375 C 33.864788 874.894775 22.042683 863.055908 22 848.439453 L 22 696.408203 C 22.042677 681.791748 33.864765 669.952881 48.460938 669.910156 L 245.539063 669.910156 C 260.135162 669.952942 271.957367 681.791809 272 696.408203 L 272 848.439453 C 271.957367 863.055847 260.135162 874.894714 245.539063 874.9375 L 48.460938 874.9375 Z M 143.701172 836.115234 L 150.298828 836.115234 C 163.978958 836.09845 175.261765 825.382202 176.001953 811.703125 L 184.195313 766.789063 C 184.20491 766.736572 184.205841 766.685303 184.214844 766.632813 L 236.552734 756.167969 C 241.885544 755.101501 245.973663 750.793823 246.765625 745.40625 L 249.986328 723.498047 C 251.014603 716.459595 246.152771 709.918518 239.125 708.882813 C 232.097229 707.847046 225.561798 712.709473 224.521484 719.746094 L 222.621094 732.669922 L 147 747.789063 L 71.378906 732.669922 L 69.478516 719.746094 C 68.43821 712.709473 61.902767 707.847046 54.875 708.882813 C 47.847233 709.918518 42.985394 716.459595 44.013672 723.498047 L 47.234375 745.40625 C 48.026321 750.793823 52.114464 755.101501 57.447266 756.167969 L 110.728516 766.822266 L 117.990234 811.554688 C 118.654114 825.295349 129.963516 836.098755 143.701172 836.115234 Z M 143.701172 810.341797 C 143.701477 809.64917 143.644745 808.957031 143.533203 808.273438 L 137.679688 772.208984 L 144.480469 773.570313 C 145.310211 773.736023 146.153915 773.818359 147 773.818359 C 147.846085 773.818359 148.689789 773.736023 149.519531 773.570313 L 157.068359 772.060547 L 150.507813 808.025391 C 150.368271 808.789612 150.29892 809.564941 150.298828 810.341797 L 143.701172 810.341797 Z"/>
    <path id="prometheus" fill="#e75225" stroke="none" d="M 773.811768 36 C 842.362122 36 898.624573 91.576294 898.499817 159.128662 C 898.437439 227.803772 842.362122 282.569153 772.314758 282.569153 C 703.88916 282.506836 648.5 226.868103 648.5 158.192993 C 648.687134 91.014954 705.074341 36 773.811768 36 Z M 735.950073 79.226013 C 737.509399 86.898132 735.950073 94.071289 733.642151 101.182068 C 732.082764 106.047363 729.774902 110.787903 728.465027 115.715515 C 726.28186 123.949036 723.786865 132.120178 722.851257 140.416077 C 721.541382 152.392151 726.28186 162.995911 734.390686 173.537354 C 721.229492 170.792847 709.253418 168.297791 697.027893 165.67804 C 697.090271 166.863159 697.027893 167.362183 697.090271 167.73645 C 700.583313 178.090698 706.883179 186.698486 713.869202 194.994385 C 714.617737 195.805298 716.239502 196.30426 717.549377 196.30426 C 754.787354 196.366638 791.962952 196.366638 829.200989 196.30426 C 830.386108 196.30426 831.883118 196.117126 832.631592 195.368652 C 840.677979 187.072754 846.728394 177.591736 850.533325 165.615662 C 836.873108 168.297791 823.899109 170.792847 810.987427 173.287842 C 813.5448 168.235413 816.601196 163.682068 818.285339 158.816772 C 824.086182 142.037842 821.715942 125.820313 813.295288 110.538391 C 806.558777 98.250427 800.321289 86.024902 803.689514 71.242004 C 796.578735 78.228027 793.834229 87.085327 792.087708 96.316833 C 790.341248 105.361206 789.405579 114.468018 788.033325 123.699524 C 787.846191 123.450073 787.59668 123.262939 787.59668 122.95105 C 787.409607 122.015442 787.347168 121.017395 787.222473 120.081787 C 786.41156 105.049377 783.417542 90.578308 777.242432 76.855774 C 773.562256 68.747009 769.507874 60.451111 773.250427 50.782959 C 770.692993 52.155212 768.385132 53.465027 766.700989 55.398682 C 761.710999 61.137207 759.714966 67.873718 759.216003 75.296387 C 758.779358 81.65863 758.093262 88.083313 757.032837 94.383179 C 755.722961 100.932556 753.789307 107.357239 749.360718 113.470032 C 747.738953 100.24646 747.551819 87.459534 735.950073 79.226013 Z M 831.883118 207.656555 L 715.241455 207.656555 L 715.241455 227.86615 L 831.945435 227.86615 L 831.945435 207.656555 Z M 738.320313 238.15802 C 738.257935 254.936951 755.47345 267.474365 776.68103 266.538757 C 794.270874 265.790222 809.864685 252.00531 808.554749 238.15802 C 808.617126 238.15802 738.320313 238.15802 738.320313 238.15802 Z"/>
    <path id="k3s" fill="#ffc61c" stroke="none" d="M 847.246826 568.910889 L 610.752991 568.910889 C 593.23761 568.962158 579.05127 583.146179 578.999939 600.658813 L 578.999939 782.813965 C 579.05127 800.32666 593.23761 814.510681 610.752991 814.561951 L 847.246826 814.561951 C 864.762207 814.510681 878.948547 800.32666 878.999939 782.813965 L 878.999939 600.658813 C 878.948547 583.146179 864.762207 568.962158 847.246826 568.910889 Z M 705.764893 747.543762 L 648.049316 781.079163 C 640.674927 785.363892 631.222839 782.860229 626.937378 775.487 C 622.651978 768.113831 625.156006 758.663147 632.530396 754.378418 L 690.245972 720.843018 C 697.620361 716.558228 707.072449 719.061951 711.35791 726.435181 C 715.643311 733.80835 713.139282 743.259033 705.764893 747.543762 Z M 728.470215 696.450928 L 728.400818 696.450928 C 724.304993 696.433167 720.384033 694.789246 717.500488 691.880859 C 714.617004 688.972473 713.007141 685.037903 713.025146 680.942749 L 713.314758 614.463867 C 713.352356 605.963013 720.254517 599.091309 728.756714 599.089844 L 728.826111 599.089844 C 737.355042 599.127136 744.238892 606.070435 744.20166 614.598022 L 743.912048 681.076904 C 743.874451 689.577698 736.972351 696.449463 728.470215 696.450928 Z M 830.590393 775.443298 C 828.543701 778.99115 825.170532 781.5802 821.213745 782.640198 C 817.256958 783.700256 813.041016 783.144348 809.494324 781.094971 L 751.694275 747.729248 C 744.307861 743.465332 741.7771 734.021729 746.041687 726.636475 C 750.306335 719.25116 759.751343 716.720825 767.137756 720.984741 L 824.937805 754.350525 C 828.485107 756.397949 831.073486 759.770569 832.133545 763.726318 C 833.193665 767.682007 832.63855 771.89679 830.590393 775.443298 Z"/>
    <g id="cilium">
        <path id="Path" fill="#e83030" stroke="#141a1f" stroke-width="11.107528" d="M 110.479721 178.759521 L 88.520645 139.915833 L 110.479721 101.07251 L 154.196976 101.07251 L 176.156052 139.915833 L 154.196976 178.759521 L 110.479721 178.759521 Z"/>
        <path id="path1" fill="#6b91c7" stroke="#141a1f" stroke-width="11.107528" d="M 110.479721 272.747253 L 88.520645 233.903564 L 110.479721 195.060303 L 154.196976 195.060303 L 176.156052 233.903564 L 154.196976 272.747253 L 110.479721 272.747253 Z"/>
        <path id="path2" fill="#f9c31f" stroke="#141a1f" stroke-width="11.107528" d="M 110.479721 84.771301 L 88.520645 45.92804 L 110.479721 7.084534 L 154.196976 7.084534 L 176.156052 45.92804 L 154.196976 84.771301 L 110.479721 84.771301 Z"/>
        <path id="path3" fill="#795aa5" stroke="#141a1f" stroke-width="11.107528" d="M 191.677826 225.750732 L 169.71875 186.907471 L 191.677826 148.063843 L 235.395065 148.063843 L 257.354156 186.907471 L 235.395065 225.750732 L 191.677826 225.750732 Z"/>
        <path id="path4" fill="#f17423" stroke="#141a1f" stroke-width="11.107528" d="M 191.677826 131.763367 L 169.71875 92.920105 L 191.677826 54.076477 L 235.395065 54.076477 L 257.354156 92.920105 L 235.395065 131.763367 L 191.677826 131.763367 Z"/>
        <path id="path5" fill="#97c639" stroke="#141a1f" stroke-width="11.107528" d="M 29.313187 225.75116 L 7.35415 186.907898 L 29.313187 148.064209 L 73.030273 148.064209 L 94.989357 186.907898 L 73.030273 225.75116 L 29.313187 225.75116 Z"/>
        <path id="path6" fill="#c9db70" stroke="#141a1f" stroke-width="11.107528" d="M 29.313187 131.763367 L 7.35415 92.920105 L 29.313187 54.076477 L 73.030273 54.076477 L 94.989357 92.920105 L 73.030273 131.763367 L 29.313187 131.763367 Z"/>
    </g>
</svg>
